<svg xml:space="preserve" viewBox="0 0 100 100" y="0" x="0" xmlns="http://www.w3.org/2000/svg" id="圖層_1" version="1.1" style="margin: initial; display: block; shape-rendering: auto;" preserveAspectRatio="xMidYMid" width="200" height="200"><g class="ldl-scale" style="transform-origin: 50% 50%; transform: rotate(0deg) scale(0.8, 0.8);"><g class="ldl-ani"><g class="ldl-layer"><g class="ldl-ani"><g><g class="ldl-layer"><g class="ldl-ani" style="opacity: 1; animation: 1.2987s linear -0.742115s infinite normal forwards running animate; transform-box: view-box; transform-origin: 50px 50px;"><path stroke-miterlimit="10" stroke-width="3.5" stroke="#333" fill="#666" d="M48.336 13.431c-18.57 0-33.624 15.054-33.624 33.624s15.054 33.624 33.624 33.624S81.96 65.625 81.96 47.055c-.001-18.57-15.055-33.624-33.624-33.624zm0 45.24c-6.415 0-11.616-5.201-11.616-11.616 0-6.416 5.201-11.616 11.616-11.616s11.616 5.201 11.616 11.616-5.201 11.616-11.616 11.616z" style="stroke-width: 3.5; fill: rgb(37, 237, 218); stroke: rgb(255, 255, 255);"></path></g></g><g class="ldl-layer"><g class="ldl-ani" style="opacity: 1; animation: 1.2987s linear -0.834879s infinite normal forwards running animate; transform-box: view-box; transform-origin: 50px 50px;"><path d="M62.641 31.043l8.058 7.944" stroke-miterlimit="10" stroke-linecap="round" stroke-width="8" stroke="#333" fill="none" style="stroke-width: 8; stroke: rgb(255, 255, 255);"></path></g></g><g class="ldl-layer"><g class="ldl-ani" style="opacity: 1; animation: 1.2987s linear -0.927644s infinite normal forwards running animate; transform-box: view-box; transform-origin: 50px 50px;"><path d="M9.126 22.845h43.82l7.338 5.874" stroke-miterlimit="10" stroke-linecap="round" stroke-width="3.5" stroke="#333" fill="none" style="stroke-width: 3.5; stroke: rgb(255, 255, 255);"></path></g></g></g></g></g><g class="ldl-layer"><g class="ldl-ani"><g><g class="ldl-layer"><g class="ldl-ani" style="opacity: 1; animation: 1.2987s linear -1.02041s infinite normal forwards running animate; transform-box: view-box; transform-origin: 50px 50px;"><circle stroke-miterlimit="10" stroke-width="4" stroke="#333" fill="#fff" r="14.738" cy="71.831" cx="76.136" style="stroke-width: 4; fill: rgb(255, 255, 255); stroke: rgb(255, 255, 255);"></circle></g></g><g class="ldl-layer"><g class="ldl-ani"><g><g class="ldl-layer"><g class="ldl-ani" style="opacity: 1; animation: 1.2987s linear -1.11317s infinite normal forwards running animate; transform-box: view-box; transform-origin: 50px 50px;"><path fill="#666" d="M69.49 73.831h-.5a2 2 0 0 1 0-4h.5a2 2 0 0 1 0 4z" style="stroke-width: 1; fill: rgb(37, 237, 218);"></path></g></g></g></g></g><g class="ldl-layer"><g class="ldl-ani"><g><g class="ldl-layer"><g class="ldl-ani" style="opacity: 1; animation: 1.2987s linear -1.20594s infinite normal forwards running animate; transform-box: view-box; transform-origin: 50px 50px;"><path fill="#666" d="M76.54 73.831h-.708a2 2 0 0 1 0-4h.708a2 2 0 0 1 0 4z" style="stroke-width: 1; fill: rgb(37, 237, 218);"></path></g></g></g></g></g><g class="ldl-layer"><g class="ldl-ani"><g><g class="ldl-layer"><g class="ldl-ani" style="opacity: 1; animation: 1.2987s linear -1.2987s infinite normal forwards running animate; transform-box: view-box; transform-origin: 50px 50px;"><path fill="#666" d="M83.281 73.831h-.5a2 2 0 0 1 0-4h.5a2 2 0 0 1 0 4z" style="stroke-width: 1; fill: rgb(37, 237, 218);"></path></g></g></g></g></g></g></g></g><metadata xmlns:d="https://loading.io/stock/"></metadata></g></g><style type="text/css">@keyframes animate { 0.00% {animation-timing-function: cubic-bezier(0.33,0.00,0.67,0.00);transform: translate(0.00px,0.00px) rotate(0.00deg) scale(1.00, 1.00) skew(0deg, 0.00deg) ;opacity: 1.00;}48.00% {transform: translate(0.00px,0.00px) rotate(0.00deg) ;opacity: 1.00;}50.00% {animation-timing-function: cubic-bezier(0.33,0.00,0.67,0.00);transform: translate(0.00px,0.00px) rotate(0.00deg) ;opacity: 0.00;}100.00% {animation-timing-function: cubic-bezier(0.33,0.00,0.67,0.00);transform: translate(0.00px,0.00px) rotate(0.00deg) ;opacity: 0.00;} }</style><!-- [ldio] generated by https://loading.io --></svg>
